<svg xmlns="http://www.w3.org/2000/svg" width="24" height="23" fill="none"><g clip-path="url(#a)" filter="url(#b)"><path fill="#212121" d="M18 3H6c-.825 0-1.492.675-1.492 1.5l-.008 9c0 .825.675 1.5 1.5 1.5h12c.825 0 1.5-.675 1.5-1.5v-9c0-.825-.675-1.5-1.5-1.5Zm-.3 3.188-5.302 3.314a.759.759 0 0 1-.796 0L6.3 6.188a.637.637 0 1 1 .675-1.08L12 8.25l5.025-3.143a.637.637 0 1 1 .675 1.08Z"/></g><defs><clipPath id="a"><path fill="#fff" d="M3 0h18v18H3z"/></clipPath><filter id="b" width="26" height="26" x="-1" y="0" color-interpolation-filters="sRGB" filterUnits="userSpaceOnUse"><feFlood flood-opacity="0" result="BackgroundImageFix"/><feColorMatrix in="SourceAlpha" result="hardAlpha" values="0 0 0 0 0 0 0 0 0 0 0 0 0 0 0 0 0 0 127 0"/><feOffset dy="4"/><feGaussianBlur stdDeviation="2"/><feComposite in2="hardAlpha" operator="out"/><feColorMatrix values="0 0 0 0 0 0 0 0 0 0 0 0 0 0 0 0 0 0 0.25 0"/><feBlend in2="BackgroundImageFix" result="effect1_dropShadow_3_7010"/><feBlend in="SourceGraphic" in2="effect1_dropShadow_3_7010" result="shape"/></filter></defs></svg>